<svg xmlns="http://www.w3.org/2000/svg" width="40" height="40" viewBox="0 0 40 40" fill="none">
  <mask id="mask0_1595_17144" style="mask-type:alpha" maskUnits="userSpaceOnUse" x="0" y="0" width="40" height="40">
    <rect width="40" height="40" fill="#D9D9D9"/>
  </mask>
  <g mask="url(#mask0_1595_17144)">
    <path d="M20 21.2501C21.5042 21.2501 22.7831 20.7234 23.8365 19.67C24.8899 18.6166 25.4166 17.3377 25.4166 15.8335C25.4166 14.3292 24.8899 13.0503 23.8365 11.997C22.7831 10.9435 21.5042 10.4168 20 10.4168C18.4957 10.4168 17.2168 10.9435 16.1635 11.997C15.11 13.0503 14.5833 14.3292 14.5833 15.8335C14.5833 17.3377 15.11 18.6166 16.1635 19.67C17.2168 20.7234 18.4957 21.2501 20 21.2501ZM20 35.8013C16.1795 34.7522 13.141 32.6101 10.8846 29.3751C8.62821 26.1401 7.5 22.5151 7.5 18.5001V8.91042L20 4.23096L32.4999 8.91042V18.5001C32.4999 22.5151 31.3717 26.1401 29.1153 29.3751C26.8589 32.6101 23.8205 34.7522 20 35.8013ZM20 33.1668C21.564 32.6604 22.9647 31.8847 24.2019 30.8399C25.439 29.795 26.5138 28.5963 27.4262 27.2437C26.2745 26.654 25.0742 26.2021 23.8252 25.888C22.5763 25.5739 21.3012 25.4168 20 25.4168C18.6987 25.4168 17.4236 25.5739 16.1747 25.888C14.9257 26.2021 13.7254 26.654 12.5737 27.2437C13.4861 28.5963 14.5609 29.795 15.798 30.8399C17.0352 31.8847 18.4359 32.6604 20 33.1668Z" fill="white"/>
  </g>
</svg>