<svg xmlns="http://www.w3.org/2000/svg" width="16" height="16" viewBox="0 0 16 16" fill="none">
  <mask id="mask0_1595_17411" style="mask-type:alpha" maskUnits="userSpaceOnUse" x="0" y="0" width="16" height="16">
    <rect width="16" height="16" fill="#D9D9D9"/>
  </mask>
  <g mask="url(#mask0_1595_17411)">
    <path d="M8.00001 9.96676C7.91112 9.96676 7.82779 9.95288 7.75001 9.9251C7.67223 9.89732 7.60001 9.8501 7.53334 9.78343L4.46667 6.71676C4.34445 6.59454 4.28334 6.43899 4.28334 6.2501C4.28334 6.06121 4.34445 5.90565 4.46667 5.78343C4.5889 5.66121 4.74445 5.6001 4.93334 5.6001C5.12223 5.6001 5.27778 5.66121 5.40001 5.78343L8.00001 8.38343L10.6 5.78343C10.7222 5.66121 10.8778 5.6001 11.0667 5.6001C11.2556 5.6001 11.4111 5.66121 11.5333 5.78343C11.6556 5.90565 11.7167 6.06121 11.7167 6.2501C11.7167 6.43899 11.6556 6.59454 11.5333 6.71676L8.46667 9.78343C8.40001 9.8501 8.32779 9.89732 8.25001 9.9251C8.17223 9.95288 8.0889 9.96676 8.00001 9.96676Z" fill="white"/>
  </g>
</svg>