<svg xmlns="http://www.w3.org/2000/svg" width="16" height="16" viewBox="0 0 16 16" fill="none">
  <path d="M6.88 9.44L5.16 7.72C5.01333 7.57333 4.82667 7.5 4.6 7.5C4.37333 7.5 4.18667 7.57333 4.04 7.72C3.89333 7.86667 3.82 8.05333 3.82 8.28C3.82 8.50667 3.89333 8.69333 4.04 8.84L6.32 11.12C6.48 11.28 6.66667 11.36 6.88 11.36C7.09333 11.36 7.28 11.28 7.44 11.12L11.96 6.6C12.1067 6.45333 12.18 6.26667 12.18 6.04C12.18 5.81333 12.1067 5.62667 11.96 5.48C11.8133 5.33333 11.6267 5.26 11.4 5.26C11.1733 5.26 10.9867 5.33333 10.84 5.48L6.88 9.44ZM8 16C6.89333 16 5.85333 15.79 4.88 15.37C3.90667 14.95 3.06 14.38 2.34 13.66C1.62 12.94 1.05 12.0933 0.63 11.12C0.21 10.1467 0 9.10667 0 8C0 6.89333 0.21 5.85333 0.63 4.88C1.05 3.90667 1.62 3.06 2.34 2.34C3.06 1.62 3.90667 1.05 4.88 0.63C5.85333 0.21 6.89333 0 8 0C9.10667 0 10.1467 0.21 11.12 0.63C12.0933 1.05 12.94 1.62 13.66 2.34C14.38 3.06 14.95 3.90667 15.37 4.88C15.79 5.85333 16 6.89333 16 8C16 9.10667 15.79 10.1467 15.37 11.12C14.95 12.0933 14.38 12.94 13.66 13.66C12.94 14.38 12.0933 14.95 11.12 15.37C10.1467 15.79 9.10667 16 8 16Z" fill="#49C998"/>
</svg>