<svg width="163" height="45" viewBox="0 0 163 45" fill="none" xmlns="http://www.w3.org/2000/svg">
<path d="M72.7624 31.2883H64.2998C63.8504 31.2883 63.476 31.1385 63.1764 30.8389C62.8768 30.5393 62.7271 30.1649 62.7271 29.7156C62.7271 29.2662 62.8768 28.9292 63.1764 28.6296C63.476 28.3301 63.8504 28.1803 64.2998 28.1803H72.7624C73.0994 28.1803 73.4364 28.068 73.736 27.8807C74.0356 27.6561 74.2602 27.3939 74.3726 27.1318C74.41 27.0195 74.4475 26.9071 74.4475 26.7948C74.4849 26.6825 74.4849 26.5701 74.4849 26.4578C74.4849 26.1208 74.3726 25.8212 74.1853 25.5217C73.9607 25.2221 73.6986 24.9974 73.4364 24.8851C73.2118 24.8102 72.9871 24.7353 72.7624 24.7353H67.595C66.5465 24.7353 65.6478 24.4732 64.8614 23.9115C64.487 23.6494 64.1125 23.3498 63.813 22.9754C63.5134 22.6009 63.2887 22.2265 63.1015 21.7771C62.8394 21.178 62.7271 20.5414 62.7271 19.8674C62.7271 19.3806 62.8019 18.8938 62.9517 18.4445C63.1015 17.9951 63.2887 17.5832 63.5508 17.2088C64.0751 16.4224 64.7865 15.8233 65.6852 15.4489C66.2844 15.1867 66.8835 15.0744 67.5575 15.0744H76.0202C76.4695 15.0744 76.8065 15.2242 77.1435 15.5237C77.4431 15.8233 77.5929 16.1978 77.5929 16.6097C77.5929 17.0216 77.4431 17.4335 77.1435 17.733C76.844 18.0326 76.4695 18.1824 76.0202 18.1824H67.595C67.2205 18.1824 66.9209 18.2947 66.6214 18.4819C66.3218 18.6692 66.1346 18.9313 65.9848 19.2308C65.9474 19.3432 65.9099 19.4555 65.9099 19.5304C65.8725 19.6427 65.8725 19.7551 65.8725 19.8674C65.8725 20.2419 65.9848 20.5414 66.172 20.841C66.3967 21.1406 66.6588 21.3652 66.9209 21.4776C67.1082 21.5525 67.3328 21.6273 67.595 21.6273H72.7624C73.8109 21.6273 74.7096 21.8895 75.4959 22.4511C75.8704 22.7133 76.2448 23.0128 76.5444 23.3873C76.844 23.7617 77.0686 24.1362 77.2559 24.5855C77.518 25.1847 77.6303 25.8212 77.6303 26.4578C77.6303 26.982 77.5554 27.4688 77.4056 27.9182C77.2559 28.3675 77.0686 28.7794 76.8065 29.1913C76.2823 29.9777 75.5708 30.5768 74.6721 30.9512C74.0356 31.1759 73.399 31.2883 72.7624 31.2883Z" fill="white"/>
<path d="M81.2627 29.7157V16.6098C81.2627 16.1605 81.4125 15.8235 81.712 15.5239C82.0116 15.2243 82.3861 15.0371 82.8354 15.0371H90.5492C91.1483 15.0371 91.7474 15.112 92.3091 15.2992C92.8708 15.4865 93.3576 15.7111 93.8443 16.0481C94.8179 16.6847 95.5294 17.546 95.9787 18.6319C96.2783 19.3433 96.4281 20.0922 96.4281 20.916C96.4281 21.5152 96.3532 22.1143 96.166 22.676C95.9787 23.2377 95.7541 23.7244 95.4171 24.2112C94.7805 25.1848 93.9192 25.8963 92.8333 26.3456C92.1219 26.6452 91.3355 26.795 90.5492 26.795H84.4081V29.7531C84.4081 30.2025 84.2583 30.5769 83.9588 30.8765C83.6592 31.1761 83.2847 31.3259 82.8354 31.3259C82.3861 31.3259 82.0116 31.1761 81.712 30.8765C81.4125 30.5395 81.2627 30.165 81.2627 29.7157ZM90.5866 23.6496C91.1857 23.6496 91.6725 23.4998 92.1219 23.2002C92.4963 22.9381 92.7959 22.6385 93.0205 22.2266C93.2452 21.8147 93.3201 21.4028 93.3201 20.916C93.3201 20.3544 93.1703 19.8676 92.8333 19.4182C92.4963 18.9689 92.1219 18.6319 91.6351 18.4072C91.2981 18.2574 90.9236 18.22 90.5492 18.22H84.4081V23.6496H90.5866Z" fill="white"/>
<path d="M113.278 15.0744C113.727 15.0744 114.064 15.2242 114.364 15.5237C114.664 15.8233 114.813 16.1978 114.813 16.6471V29.753C114.813 30.2023 114.664 30.5768 114.364 30.8764C114.064 31.1759 113.69 31.3257 113.278 31.3257C112.866 31.3257 112.454 31.1759 112.155 30.8764C111.855 30.5768 111.705 30.2023 111.705 29.753V24.7728H102.681V29.753C102.681 30.2023 102.531 30.5768 102.232 30.8764C101.932 31.1759 101.558 31.3257 101.108 31.3257C100.659 31.3257 100.285 31.1759 99.985 30.8764C99.6854 30.5768 99.5356 30.2023 99.5356 29.753V16.6471C99.5356 16.1978 99.6854 15.8608 99.985 15.5237C100.285 15.2242 100.659 15.0744 101.108 15.0744C101.558 15.0744 101.895 15.2242 102.232 15.5237C102.531 15.8233 102.681 16.1978 102.681 16.6471V21.6648H111.705V16.6471C111.705 16.1978 111.855 15.8608 112.155 15.5237C112.454 15.2242 112.829 15.0744 113.278 15.0744Z" fill="white"/>
<path d="M119.157 29.7157V16.6098C119.157 16.1605 119.307 15.8235 119.607 15.4865C119.906 15.1869 120.281 15.0371 120.73 15.0371C121.179 15.0371 121.516 15.1869 121.816 15.4865C122.115 15.786 122.265 16.1605 122.265 16.6098V29.7157C122.265 30.165 122.115 30.5395 121.816 30.8391C121.516 31.1386 121.142 31.2884 120.73 31.2884C120.281 31.2884 119.906 31.1386 119.607 30.8391C119.307 30.5395 119.157 30.165 119.157 29.7157Z" fill="white"/>
<path d="M126.721 29.7905V16.6846C126.721 16.3851 126.796 16.0855 126.983 15.8234C127.171 15.5613 127.395 15.4115 127.657 15.2617C127.845 15.1868 128.069 15.1119 128.294 15.1119C128.706 15.1119 129.043 15.2617 129.342 15.5613L139.715 25.9337V16.6472C139.715 16.1979 139.865 15.8608 140.164 15.5613C140.464 15.2617 140.838 15.1119 141.25 15.1119C141.699 15.1119 142.036 15.2617 142.336 15.5613C142.635 15.8608 142.785 16.2353 142.785 16.6472V29.6033C142.785 29.9029 142.71 30.2024 142.523 30.4646C142.373 30.7267 142.111 30.9139 141.812 31.0262C141.624 31.1011 141.437 31.1386 141.25 31.1386C140.838 31.1386 140.464 30.9888 140.164 30.6892L129.792 20.3168V29.7531C129.792 30.2024 129.642 30.5394 129.342 30.839C129.043 31.1386 128.668 31.2883 128.256 31.2883C127.845 31.2883 127.47 31.1386 127.171 30.839C126.871 30.5769 126.721 30.2024 126.721 29.7905Z" fill="white"/>
<path d="M161.845 28.6672C162.145 29.0042 162.295 29.3412 162.295 29.7531C162.295 30.165 162.145 30.5394 161.845 30.839C161.695 30.9888 161.546 31.1386 161.358 31.176C161.171 31.2135 160.984 31.2883 160.797 31.2883C160.61 31.2883 160.422 31.2509 160.235 31.176C160.048 31.1011 159.898 30.9888 159.748 30.839L154.281 25.372L148.814 30.839C148.515 31.1386 148.178 31.2883 147.728 31.2883C147.541 31.2883 147.354 31.2509 147.167 31.176C146.979 31.1011 146.792 30.9888 146.68 30.839C146.53 30.6892 146.38 30.5394 146.343 30.3148C146.268 30.1275 146.231 29.9403 146.231 29.7531C146.231 29.3412 146.38 28.9667 146.68 28.6672L152.147 23.2001L146.568 17.7331C146.268 17.4336 146.118 17.0965 146.118 16.6472C146.118 16.46 146.156 16.2727 146.231 16.0855C146.305 15.8983 146.418 15.7111 146.568 15.5613C146.717 15.4115 146.867 15.2992 147.054 15.2243C147.242 15.1494 147.429 15.1119 147.616 15.1119C147.803 15.1119 147.99 15.1494 148.178 15.2243C148.365 15.2992 148.515 15.4115 148.664 15.5613L154.169 21.0658L159.636 15.5613C159.936 15.2617 160.273 15.1494 160.722 15.1494C160.909 15.1494 161.096 15.1868 161.284 15.2617C161.471 15.3366 161.621 15.4489 161.77 15.5987C162.07 15.9357 162.22 16.3102 162.22 16.6846C162.22 17.0965 162.07 17.471 161.77 17.7706L156.303 23.2376L161.845 28.6672Z" fill="white"/>
<path d="M5.90824 0H38.8959C42.1618 0 44.8041 2.65385 44.8041 5.93407V39.0659C44.8041 42.3462 42.1618 45 38.8959 45H5.90824C2.64229 45 0 42.3462 0 39.0659V5.93407C0 2.65385 2.64229 0 5.90824 0Z" fill="#618AFF"/>
<path d="M32.6925 10.9944C31.1826 9.60982 29.4429 8.53839 27.5392 7.79663C25.8324 7.13729 24.0599 6.79114 22.4351 6.79114H22.4187C20.7939 6.79114 19.0215 7.13729 17.3146 7.79663C15.4109 8.53839 13.6712 9.60982 12.1614 10.9944C9.61753 13.3351 6.56494 17.6538 6.56494 24.923C6.56494 25.2856 6.76188 25.6318 7.07371 25.8131C7.10653 25.8296 10.1427 27.6263 10.7335 31.1538C11.1274 33.5769 12.7686 35.423 15.4437 36.5274C17.3639 37.3186 19.1692 37.434 19.2348 37.434C19.5138 37.4505 19.7928 37.3516 19.9898 37.1538C20.1867 36.956 20.318 36.6922 20.318 36.412V29.1428C20.9745 29.3406 21.6638 29.4395 22.3695 29.4395C23.1244 29.4395 23.8465 29.3406 24.5194 29.1263V36.4285C24.5194 36.7087 24.6343 36.9889 24.8476 37.1703C25.0446 37.3516 25.2908 37.4505 25.5534 37.4505C25.5698 37.4505 25.6026 37.4505 25.619 37.4505C25.7011 37.4505 27.4899 37.3351 29.4101 36.5439C32.1016 35.456 33.7264 33.5933 34.1203 31.1703C34.3665 29.7197 35.0394 28.3845 36.1389 27.2142C36.9924 26.3076 37.7801 25.8296 37.7801 25.8296C38.0919 25.6483 38.2889 25.3021 38.2889 24.9395C38.2889 17.6538 35.2527 13.3351 32.6925 10.9944ZM22.4187 8.85158C24.503 8.85158 27.5392 9.60982 30.2471 11.6373L28.4582 15.0823H16.3464L14.5903 11.6373C17.3146 9.59334 20.3508 8.85158 22.4187 8.85158ZM12.7358 30.8241C12.1614 27.2966 9.69959 25.1703 8.6 24.3791C8.73129 18.6758 10.9469 15.1153 12.9984 13.0219L14.6888 16.3351L14.7052 20.6538C14.7052 22.2362 15.0826 23.8021 15.7884 25.1703C16.4284 26.4065 17.2654 27.3955 18.2829 28.1208V35.2252C16.5433 34.8955 13.2445 33.8736 12.7358 30.8241ZM17.6101 24.2307C17.0521 23.1593 16.7566 21.923 16.7566 20.6538V17.1263H28.0644L28.0315 20.5054C28.0151 21.8076 27.7197 23.0769 27.1617 24.1977C26.4396 25.6483 25.0282 27.3791 22.3859 27.3791C19.6451 27.3791 18.2173 25.4175 17.6101 24.2307ZM32.1181 30.8241C31.8391 32.5054 30.6902 33.7911 28.688 34.6153C27.9166 34.9285 27.1617 35.1263 26.5709 35.2417V28.0878C27.5392 27.3626 28.3598 26.3736 28.967 25.1208C29.6563 23.7197 30.0338 22.1373 30.0502 20.5219L30.083 16.3516L31.8391 13.0219C33.9069 15.1153 36.1225 18.6758 36.2538 24.3955C35.1542 25.1703 32.6925 27.2966 32.1181 30.8241Z" fill="white"/>
</svg>
