<svg xmlns="http://www.w3.org/2000/svg" width="21" height="20" viewBox="0 0 21 20" fill="none">
  <mask id="mask0_3678_1972" style="mask-type:alpha" maskUnits="userSpaceOnUse" x="0" y="0" width="21" height="20">
    <rect x="0.5" width="20" height="20" fill="white"/>
  </mask>
  <g mask="url(#mask0_3678_1972)">
    <path d="M9.87502 10.6249H5.70835C5.53127 10.6249 5.38283 10.565 5.26304 10.4451C5.14325 10.3253 5.08335 10.1768 5.08335 9.99963C5.08335 9.82246 5.14325 9.67405 5.26304 9.5544C5.38283 9.43475 5.53127 9.37492 5.70835 9.37492H9.87502V5.20825C9.87502 5.03117 9.93494 4.88273 10.0548 4.76294C10.1746 4.64315 10.3231 4.58325 10.5003 4.58325C10.6774 4.58325 10.8258 4.64315 10.9455 4.76294C11.0652 4.88273 11.125 5.03117 11.125 5.20825V9.37492H15.2916C15.4687 9.37492 15.6172 9.43484 15.737 9.55467C15.8568 9.67452 15.9166 9.82302 15.9166 10.0002C15.9166 10.1773 15.8568 10.3257 15.737 10.4454C15.6172 10.5651 15.4687 10.6249 15.2916 10.6249H11.125V14.7915C11.125 14.9686 11.0651 15.1171 10.9452 15.2369C10.8254 15.3566 10.6769 15.4165 10.4997 15.4165C10.3226 15.4165 10.1742 15.3566 10.0545 15.2369C9.93485 15.1171 9.87502 14.9686 9.87502 14.7915V10.6249Z" fill="white"/>
  </g>
</svg>