<svg xmlns="http://www.w3.org/2000/svg" width="40" height="40" viewBox="0 0 40 40" fill="none">
  <mask id="mask0_1540_8481" style="mask-type:alpha" maskUnits="userSpaceOnUse" x="0" y="0" width="40" height="40">
    <rect width="40" height="40" fill="#D9D9D9"/>
  </mask>
  <g mask="url(#mask0_1540_8481)">
    <path d="M10.3269 29.141C11.7436 28.1218 13.2468 27.3157 14.8365 26.7227C16.4263 26.1298 18.1474 25.8333 20 25.8333C21.8526 25.8333 23.5737 26.1298 25.1635 26.7227C26.7532 27.3157 28.2564 28.1218 29.6731 29.141C30.7735 28.0022 31.6587 26.6571 32.3285 25.1057C32.9984 23.5545 33.3333 21.8526 33.3333 20C33.3333 16.3056 32.0347 13.1597 29.4375 10.5625C26.8403 7.96528 23.6944 6.66667 20 6.66667C16.3056 6.66667 13.1597 7.96528 10.5625 10.5625C7.96528 13.1597 6.66667 16.3056 6.66667 20C6.66667 21.8526 7.0016 23.5545 7.67146 25.1057C8.34135 26.6571 9.2265 28.0022 10.3269 29.141ZM20 20.8333C18.5961 20.8333 17.4118 20.351 16.4471 19.3862C15.4824 18.4215 15 17.2372 15 15.8333C15 14.4295 15.4824 13.2452 16.4471 12.2805C17.4118 11.3157 18.5961 10.8333 20 10.8333C21.4039 10.8333 22.5882 11.3157 23.5529 12.2805C24.5176 13.2452 25 14.4295 25 15.8333C25 17.2372 24.5176 18.4215 23.5529 19.3862C22.5882 20.351 21.4039 20.8333 20 20.8333ZM20 35C17.9081 35 15.9498 34.6106 14.125 33.8318C12.3002 33.0529 10.7126 31.9882 9.36217 30.6378C8.01175 29.2874 6.94711 27.6998 6.16825 25.875C5.38942 24.0502 5 22.0919 5 20C5 17.9081 5.38942 15.9498 6.16825 14.125C6.94711 12.3002 8.01175 10.7126 9.36217 9.36217C10.7126 8.01175 12.3002 6.94711 14.125 6.16825C15.9498 5.38942 17.9081 5 20 5C22.0919 5 24.0502 5.38942 25.875 6.16825C27.6998 6.94711 29.2874 8.01175 30.6378 9.36217C31.9882 10.7126 33.0529 12.3002 33.8317 14.125C34.6106 15.9498 35 17.9081 35 20C35 22.0919 34.6106 24.0502 33.8317 25.875C33.0529 27.6998 31.9882 29.2874 30.6378 30.6378C29.2874 31.9882 27.6998 33.0529 25.875 33.8318C24.0502 34.6106 22.0919 35 20 35Z" fill="#6B7A8D"/>
  </g>
</svg>