<svg width="351" height="81" viewBox="0 0 351 81" fill="none" xmlns="http://www.w3.org/2000/svg">
<path d="M226.605 30.6024C226.496 30.6024 226.424 30.5542 226.388 30.4578L222.446 18.1431L222.428 18.0707C222.428 17.9863 222.482 17.9441 222.59 17.9441H223.567C223.675 17.9441 223.748 17.9924 223.784 18.0888L227.075 28.6856C227.087 28.7097 227.105 28.7218 227.129 28.7218C227.153 28.7218 227.172 28.7097 227.184 28.6856L230.475 18.0888C230.511 17.9924 230.583 17.9441 230.692 17.9441H231.65C231.783 17.9441 231.831 18.0104 231.795 18.1431L227.816 30.4578C227.78 30.5542 227.708 30.6024 227.599 30.6024H226.605Z" fill="white"/>
<path d="M236.189 21.3076C237.274 21.3076 238.112 21.5849 238.703 22.1395C239.294 22.694 239.589 23.4294 239.589 24.3456V30.4216C239.589 30.5422 239.529 30.6024 239.408 30.6024H238.486C238.365 30.6024 238.305 30.5422 238.305 30.4216V29.6802C238.305 29.6561 238.293 29.638 238.269 29.6259C238.257 29.6139 238.239 29.6199 238.215 29.644C237.913 30.0057 237.521 30.283 237.039 30.4759C236.557 30.6567 236.021 30.7471 235.43 30.7471C234.574 30.7471 233.857 30.5301 233.278 30.0961C232.699 29.6621 232.41 28.9991 232.41 28.1069C232.41 27.2028 232.735 26.4915 233.386 25.9731C234.049 25.4427 234.966 25.1775 236.135 25.1775H238.233C238.281 25.1775 238.305 25.1533 238.305 25.1051V24.418C238.305 23.8031 238.13 23.3209 237.781 22.9713C237.443 22.6096 236.913 22.4288 236.189 22.4288C235.611 22.4288 235.141 22.5433 234.779 22.7724C234.417 22.9894 234.194 23.2968 234.11 23.6946C234.074 23.8152 234.001 23.8694 233.893 23.8574L232.916 23.7308C232.784 23.7067 232.729 23.6585 232.754 23.5861C232.85 22.911 233.212 22.3625 233.839 21.9405C234.465 21.5186 235.249 21.3076 236.189 21.3076ZM235.683 29.644C236.394 29.644 237.009 29.4692 237.527 29.1196C238.046 28.7579 238.305 28.2757 238.305 27.6729V26.2624C238.305 26.2142 238.281 26.1901 238.233 26.1901H236.334C235.538 26.1901 234.899 26.3529 234.417 26.6784C233.935 27.0039 233.694 27.4559 233.694 28.0346C233.694 28.5651 233.875 28.9689 234.236 29.2462C234.61 29.5114 235.092 29.644 235.683 29.644Z" fill="white"/>
<path d="M242.441 30.6024C242.321 30.6024 242.261 30.5422 242.261 30.4216V18.125C242.261 18.0044 242.321 17.9441 242.441 17.9441H243.364C243.484 17.9441 243.545 18.0044 243.545 18.125V30.4216C243.545 30.5422 243.484 30.6024 243.364 30.6024H242.441Z" fill="white"/>
<path d="M247.296 19.7886C247.007 19.7886 246.766 19.6922 246.573 19.4993C246.38 19.3064 246.284 19.0653 246.284 18.776C246.284 18.4746 246.38 18.2335 246.573 18.0526C246.766 17.8598 247.007 17.7633 247.296 17.7633C247.586 17.7633 247.827 17.8598 248.02 18.0526C248.212 18.2335 248.309 18.4746 248.309 18.776C248.309 19.0653 248.212 19.3064 248.02 19.4993C247.827 19.6922 247.586 19.7886 247.296 19.7886ZM246.79 30.5844C246.669 30.5844 246.609 30.5241 246.609 30.4035V21.615C246.609 21.4945 246.669 21.4342 246.79 21.4342H247.712C247.833 21.4342 247.893 21.4945 247.893 21.615V30.4035C247.893 30.5241 247.833 30.5844 247.712 30.5844H246.79Z" fill="white"/>
<path d="M256.716 18.125C256.716 18.0044 256.776 17.9441 256.896 17.9441H257.819C257.939 17.9441 257.999 18.0044 257.999 18.125V30.4216C257.999 30.5422 257.939 30.6024 257.819 30.6024H256.896C256.776 30.6024 256.716 30.5422 256.716 30.4216V29.6621C256.716 29.638 256.703 29.6259 256.679 29.6259C256.667 29.6139 256.649 29.6199 256.625 29.644C256.36 29.9936 256.028 30.2649 255.631 30.4578C255.245 30.6507 254.811 30.7471 254.329 30.7471C253.485 30.7471 252.773 30.5301 252.195 30.0961C251.628 29.6621 251.236 29.0714 251.019 28.3239C250.851 27.7814 250.766 27.0159 250.766 26.0274C250.766 25.0268 250.838 24.2793 250.983 23.785C251.2 23.0135 251.598 22.4107 252.177 21.9767C252.755 21.5307 253.473 21.3076 254.329 21.3076C254.799 21.3076 255.233 21.4041 255.631 21.597C256.028 21.7778 256.36 22.043 256.625 22.3926C256.649 22.4167 256.667 22.4288 256.679 22.4288C256.703 22.4167 256.716 22.3987 256.716 22.3745V18.125ZM256.39 28.2335C256.499 27.9924 256.577 27.7091 256.625 27.3836C256.673 27.0581 256.697 26.606 256.697 26.0274C256.697 25.4487 256.673 24.9966 256.625 24.6711C256.577 24.3336 256.493 24.0382 256.372 23.785C256.227 23.3752 255.986 23.0497 255.649 22.8085C255.323 22.5554 254.931 22.4288 254.473 22.4288C253.991 22.4288 253.575 22.5493 253.225 22.7905C252.876 23.0316 252.623 23.351 252.466 23.7489C252.321 24.0141 252.213 24.3155 252.14 24.653C252.08 24.9785 252.05 25.4366 252.05 26.0274C252.05 26.594 252.074 27.04 252.122 27.3655C252.171 27.679 252.255 27.9623 252.376 28.2154C252.52 28.6494 252.773 28.993 253.135 29.2462C253.509 29.4994 253.949 29.6259 254.455 29.6259C254.937 29.6259 255.341 29.4994 255.667 29.2462C255.992 28.993 256.233 28.6555 256.39 28.2335Z" fill="white"/>
<path d="M264.074 21.3076C265.159 21.3076 265.996 21.5849 266.587 22.1395C267.178 22.694 267.473 23.4294 267.473 24.3456V30.4216C267.473 30.5422 267.413 30.6024 267.292 30.6024H266.37C266.25 30.6024 266.189 30.5422 266.189 30.4216V29.6802C266.189 29.6561 266.177 29.638 266.153 29.6259C266.141 29.6139 266.123 29.6199 266.099 29.644C265.798 30.0057 265.406 30.283 264.924 30.4759C264.441 30.6567 263.905 30.7471 263.314 30.7471C262.458 30.7471 261.741 30.5301 261.162 30.0961C260.584 29.6621 260.294 28.9991 260.294 28.1069C260.294 27.2028 260.62 26.4915 261.271 25.9731C261.934 25.4427 262.85 25.1775 264.019 25.1775H266.117C266.165 25.1775 266.189 25.1533 266.189 25.1051V24.418C266.189 23.8031 266.015 23.3209 265.665 22.9713C265.327 22.6096 264.797 22.4288 264.074 22.4288C263.495 22.4288 263.025 22.5433 262.663 22.7724C262.301 22.9894 262.078 23.2968 261.994 23.6946C261.958 23.8152 261.886 23.8694 261.777 23.8574L260.801 23.7308C260.668 23.7067 260.614 23.6585 260.638 23.5861C260.734 22.911 261.096 22.3625 261.723 21.9405C262.35 21.5186 263.133 21.3076 264.074 21.3076ZM263.567 29.644C264.279 29.644 264.893 29.4692 265.412 29.1196C265.93 28.7579 266.189 28.2757 266.189 27.6729V26.2624C266.189 26.2142 266.165 26.1901 266.117 26.1901H264.218C263.423 26.1901 262.784 26.3529 262.301 26.6784C261.819 27.0039 261.578 27.4559 261.578 28.0346C261.578 28.5651 261.759 28.9689 262.121 29.2462C262.494 29.5114 262.977 29.644 263.567 29.644Z" fill="white"/>
<path d="M274.179 22.3384C274.179 22.4589 274.119 22.5192 273.998 22.5192H271.955C271.907 22.5192 271.883 22.5433 271.883 22.5915V27.9261C271.883 28.5048 272.009 28.9147 272.262 29.1558C272.528 29.3848 272.937 29.4994 273.492 29.4994H273.944C274.065 29.4994 274.125 29.5596 274.125 29.6802V30.4216C274.125 30.5422 274.065 30.6024 273.944 30.6024C273.799 30.6145 273.576 30.6205 273.275 30.6205C272.407 30.6205 271.75 30.4578 271.304 30.1323C270.858 29.8068 270.635 29.204 270.635 28.3239V22.5915C270.635 22.5433 270.611 22.5192 270.563 22.5192H269.459C269.339 22.5192 269.279 22.4589 269.279 22.3384V21.6331C269.279 21.5126 269.339 21.4523 269.459 21.4523H270.563C270.611 21.4523 270.635 21.4282 270.635 21.38V19.2823C270.635 19.1617 270.695 19.1015 270.816 19.1015H271.702C271.822 19.1015 271.883 19.1617 271.883 19.2823V21.38C271.883 21.4282 271.907 21.4523 271.955 21.4523H273.998C274.119 21.4523 274.179 21.5126 274.179 21.6331V22.3384Z" fill="white"/>
<path d="M277.529 19.7886C277.24 19.7886 276.999 19.6922 276.806 19.4993C276.613 19.3064 276.517 19.0653 276.517 18.776C276.517 18.4746 276.613 18.2335 276.806 18.0526C276.999 17.8598 277.24 17.7633 277.529 17.7633C277.819 17.7633 278.06 17.8598 278.253 18.0526C278.445 18.2335 278.542 18.4746 278.542 18.776C278.542 19.0653 278.445 19.3064 278.253 19.4993C278.06 19.6922 277.819 19.7886 277.529 19.7886ZM277.023 30.5844C276.902 30.5844 276.842 30.5241 276.842 30.4035V21.615C276.842 21.4945 276.902 21.4342 277.023 21.4342H277.945C278.066 21.4342 278.126 21.4945 278.126 21.615V30.4035C278.126 30.5241 278.066 30.5844 277.945 30.5844H277.023Z" fill="white"/>
<path d="M285.068 21.3257C286.032 21.3257 286.798 21.609 287.364 22.1756C287.943 22.7422 288.232 23.5017 288.232 24.4541V30.4216C288.232 30.5422 288.172 30.6024 288.052 30.6024H287.129C287.009 30.6024 286.949 30.5422 286.949 30.4216V24.7073C286.949 24.0442 286.744 23.5017 286.334 23.0798C285.936 22.6578 285.417 22.4469 284.779 22.4469C284.115 22.4469 283.579 22.6518 283.169 23.0617C282.759 23.4716 282.554 24.0081 282.554 24.6711V30.4216C282.554 30.5422 282.494 30.6024 282.373 30.6024H281.451C281.331 30.6024 281.27 30.5422 281.27 30.4216V21.6331C281.27 21.5126 281.331 21.4523 281.451 21.4523H282.373C282.494 21.4523 282.554 21.5126 282.554 21.6331V22.4107C282.554 22.4348 282.56 22.4529 282.572 22.465C282.596 22.477 282.615 22.471 282.627 22.4469C283.157 21.6994 283.971 21.3257 285.068 21.3257Z" fill="white"/>
<path d="M296.66 21.6331C296.66 21.5126 296.721 21.4523 296.841 21.4523H297.763C297.884 21.4523 297.944 21.5126 297.944 21.6331V30.295C297.944 31.6452 297.552 32.6338 296.769 33.2607C295.997 33.8876 294.93 34.201 293.568 34.201C293.291 34.201 293.08 34.195 292.935 34.1829C292.815 34.1709 292.754 34.1046 292.754 33.984L292.791 33.1522C292.791 33.0919 292.809 33.0437 292.845 33.0075C292.881 32.9834 292.923 32.9774 292.971 32.9894L293.46 33.0075C294.581 33.0075 295.395 32.7845 295.901 32.3384C296.407 31.9044 296.66 31.2112 296.66 30.2589V29.5898C296.66 29.5657 296.648 29.5536 296.624 29.5536C296.612 29.5415 296.594 29.5476 296.57 29.5717C296.015 30.295 295.226 30.6567 294.201 30.6567C293.417 30.6567 292.718 30.4457 292.103 30.0238C291.501 29.6018 291.097 29.0051 290.892 28.2335C290.747 27.7392 290.675 27.0039 290.675 26.0274C290.675 25.4969 290.687 25.0509 290.711 24.6892C290.747 24.3275 290.813 24.002 290.91 23.7127C291.127 22.9894 291.519 22.4107 292.085 21.9767C292.652 21.5307 293.333 21.3076 294.129 21.3076C295.202 21.3076 296.015 21.6633 296.57 22.3745C296.594 22.3987 296.612 22.4047 296.624 22.3926C296.648 22.3806 296.66 22.3625 296.66 22.3384V21.6331ZM296.57 27.8357C296.606 27.6549 296.63 27.4318 296.642 27.1666C296.654 26.9014 296.66 26.5156 296.66 26.0093C296.66 25.3945 296.654 24.9846 296.642 24.7796C296.63 24.5626 296.6 24.3637 296.552 24.1829C296.455 23.6765 296.214 23.2606 295.829 22.9351C295.455 22.5976 294.979 22.4288 294.4 22.4288C293.833 22.4288 293.351 22.5915 292.953 22.917C292.568 23.2425 292.296 23.6645 292.14 24.1829C292.019 24.5686 291.959 25.1714 291.959 25.9912C291.959 26.8713 292.019 27.4801 292.14 27.8176C292.26 28.3239 292.519 28.7459 292.917 29.0834C293.327 29.4089 293.821 29.5717 294.4 29.5717C294.991 29.5717 295.473 29.4089 295.847 29.0834C296.232 28.7579 296.474 28.342 296.57 27.8357Z" fill="white"/>
<path d="M223.675 52.8588C223.555 52.8588 223.495 52.7985 223.495 52.6779V40.3813C223.495 40.2608 223.555 40.2005 223.675 40.2005H224.598C224.718 40.2005 224.778 40.2608 224.778 40.3813V51.6653C224.778 51.7135 224.803 51.7376 224.851 51.7376H231.234C231.355 51.7376 231.415 51.7979 231.415 51.9184V52.6779C231.415 52.7985 231.355 52.8588 231.234 52.8588H223.675Z" fill="white"/>
<path d="M234.387 42.045C234.098 42.045 233.857 41.9485 233.664 41.7556C233.471 41.5628 233.375 41.3216 233.375 41.0323C233.375 40.7309 233.471 40.4898 233.664 40.309C233.857 40.1161 234.098 40.0196 234.387 40.0196C234.677 40.0196 234.918 40.1161 235.111 40.309C235.303 40.4898 235.4 40.7309 235.4 41.0323C235.4 41.3216 235.303 41.5628 235.111 41.7556C234.918 41.9485 234.677 42.045 234.387 42.045ZM233.881 52.8407C233.76 52.8407 233.7 52.7804 233.7 52.6599V43.8714C233.7 43.7508 233.76 43.6906 233.881 43.6906H234.803C234.924 43.6906 234.984 43.7508 234.984 43.8714V52.6599C234.984 52.7804 234.924 52.8407 234.803 52.8407H233.881Z" fill="white"/>
<path d="M243.77 43.8895C243.77 43.7689 243.831 43.7086 243.951 43.7086H244.873C244.994 43.7086 245.054 43.7689 245.054 43.8895V52.5514C245.054 53.9016 244.662 54.8901 243.879 55.517C243.107 56.1439 242.04 56.4574 240.678 56.4574C240.401 56.4574 240.19 56.4513 240.045 56.4393C239.925 56.4272 239.864 56.3609 239.864 56.2403L239.901 55.4085C239.901 55.3482 239.919 55.3 239.955 55.2639C239.991 55.2397 240.033 55.2337 240.081 55.2458L240.57 55.2639C241.691 55.2639 242.504 55.0408 243.011 54.5948C243.517 54.1608 243.77 53.4676 243.77 52.5152V51.8461C243.77 51.822 243.758 51.81 243.734 51.81C243.722 51.7979 243.704 51.8039 243.68 51.828C243.125 52.5514 242.336 52.913 241.311 52.913C240.527 52.913 239.828 52.7021 239.213 52.2801C238.611 51.8582 238.207 51.2614 238.002 50.4899C237.857 49.9956 237.785 49.2602 237.785 48.2837C237.785 47.7533 237.797 47.3072 237.821 46.9455C237.857 46.5839 237.923 46.2584 238.02 45.969C238.237 45.2457 238.629 44.6671 239.195 44.2331C239.762 43.787 240.443 43.564 241.239 43.564C242.312 43.564 243.125 43.9196 243.68 44.6309C243.704 44.655 243.722 44.661 243.734 44.649C243.758 44.6369 243.77 44.6188 243.77 44.5947V43.8895ZM243.68 50.092C243.716 49.9112 243.74 49.6882 243.752 49.423C243.764 49.1577 243.77 48.772 243.77 48.2656C243.77 47.6508 243.764 47.2409 243.752 47.036C243.74 46.819 243.71 46.62 243.662 46.4392C243.565 45.9329 243.324 45.517 242.938 45.1915C242.565 44.8539 242.089 44.6851 241.51 44.6851C240.943 44.6851 240.461 44.8479 240.063 45.1734C239.677 45.4989 239.406 45.9208 239.25 46.4392C239.129 46.825 239.069 47.4278 239.069 48.2475C239.069 49.1276 239.129 49.7364 239.25 50.074C239.37 50.5803 239.629 51.0022 240.027 51.3398C240.437 51.6653 240.931 51.828 241.51 51.828C242.101 51.828 242.583 51.6653 242.957 51.3398C243.342 51.0143 243.583 50.5984 243.68 50.092Z" fill="white"/>
<path d="M251.603 43.5821C252.568 43.5821 253.333 43.8654 253.9 44.432C254.478 44.9986 254.768 45.7581 254.768 46.7105V52.6779C254.768 52.7985 254.708 52.8588 254.587 52.8588H253.665C253.544 52.8588 253.484 52.7985 253.484 52.6779V46.9636C253.484 46.3006 253.279 45.7581 252.869 45.3361C252.471 44.9142 251.953 44.7032 251.314 44.7032C250.651 44.7032 250.114 44.9082 249.704 45.3181C249.295 45.7279 249.09 46.2644 249.09 46.9275V52.6779C249.09 52.7985 249.029 52.8588 248.909 52.8588H247.987C247.866 52.8588 247.806 52.7985 247.806 52.6779V40.3813C247.806 40.2608 247.866 40.2005 247.987 40.2005H248.909C249.029 40.2005 249.09 40.2608 249.09 40.3813V44.6671C249.09 44.6912 249.096 44.7092 249.108 44.7213C249.132 44.7334 249.15 44.7273 249.162 44.7032C249.692 43.9558 250.506 43.5821 251.603 43.5821Z" fill="white"/>
<path d="M261.659 44.5947C261.659 44.7153 261.598 44.7756 261.478 44.7756H259.434C259.386 44.7756 259.362 44.7997 259.362 44.8479V50.1825C259.362 50.7611 259.489 51.171 259.742 51.4121C260.007 51.6412 260.417 51.7557 260.971 51.7557H261.424C261.544 51.7557 261.604 51.816 261.604 51.9365V52.6779C261.604 52.7985 261.544 52.8588 261.424 52.8588C261.279 52.8708 261.056 52.8769 260.754 52.8769C259.886 52.8769 259.229 52.7141 258.783 52.3886C258.337 52.0631 258.114 51.4603 258.114 50.5803V44.8479C258.114 44.7997 258.09 44.7756 258.042 44.7756H256.939C256.818 44.7756 256.758 44.7153 256.758 44.5947V43.8895C256.758 43.7689 256.818 43.7086 256.939 43.7086H258.042C258.09 43.7086 258.114 43.6845 258.114 43.6363V41.5386C258.114 41.4181 258.175 41.3578 258.295 41.3578H259.181C259.302 41.3578 259.362 41.4181 259.362 41.5386V43.6363C259.362 43.6845 259.386 43.7086 259.434 43.7086H261.478C261.598 43.7086 261.659 43.7689 261.659 43.8895V44.5947Z" fill="white"/>
<path d="M267.938 43.5821C268.903 43.5821 269.668 43.8654 270.235 44.432C270.813 44.9986 271.103 45.7581 271.103 46.7105V52.6779C271.103 52.7985 271.042 52.8588 270.922 52.8588H270C269.879 52.8588 269.819 52.7985 269.819 52.6779V46.9636C269.819 46.3006 269.614 45.7581 269.204 45.3361C268.806 44.9142 268.288 44.7032 267.649 44.7032C266.986 44.7032 266.449 44.9082 266.039 45.3181C265.63 45.7279 265.425 46.2644 265.425 46.9275V52.6779C265.425 52.7985 265.364 52.8588 265.244 52.8588H264.322C264.201 52.8588 264.141 52.7985 264.141 52.6779V43.8895C264.141 43.7689 264.201 43.7086 264.322 43.7086H265.244C265.364 43.7086 265.425 43.7689 265.425 43.8895V44.6671C265.425 44.6912 265.431 44.7092 265.443 44.7213C265.467 44.7334 265.485 44.7273 265.497 44.7032C266.027 43.9558 266.841 43.5821 267.938 43.5821Z" fill="white"/>
<path d="M274.757 42.045C274.467 42.045 274.226 41.9485 274.033 41.7556C273.841 41.5628 273.744 41.3216 273.744 41.0323C273.744 40.7309 273.841 40.4898 274.033 40.309C274.226 40.1161 274.467 40.0196 274.757 40.0196C275.046 40.0196 275.287 40.1161 275.48 40.309C275.673 40.4898 275.769 40.7309 275.769 41.0323C275.769 41.3216 275.673 41.5628 275.48 41.7556C275.287 41.9485 275.046 42.045 274.757 42.045ZM274.25 52.8407C274.13 52.8407 274.07 52.7804 274.07 52.6599V43.8714C274.07 43.7508 274.13 43.6906 274.25 43.6906H275.173C275.293 43.6906 275.353 43.7508 275.353 43.8714V52.6599C275.353 52.7804 275.293 52.8407 275.173 52.8407H274.25Z" fill="white"/>
<path d="M282.295 43.5821C283.26 43.5821 284.025 43.8654 284.592 44.432C285.171 44.9986 285.46 45.7581 285.46 46.7105V52.6779C285.46 52.7985 285.4 52.8588 285.279 52.8588H284.357C284.236 52.8588 284.176 52.7985 284.176 52.6779V46.9636C284.176 46.3006 283.971 45.7581 283.561 45.3361C283.163 44.9142 282.645 44.7032 282.006 44.7032C281.343 44.7032 280.806 44.9082 280.397 45.3181C279.987 45.7279 279.782 46.2644 279.782 46.9275V52.6779C279.782 52.7985 279.721 52.8588 279.601 52.8588H278.679C278.558 52.8588 278.498 52.7985 278.498 52.6779V43.8895C278.498 43.7689 278.558 43.7086 278.679 43.7086H279.601C279.721 43.7086 279.782 43.7689 279.782 43.8895V44.6671C279.782 44.6912 279.788 44.7092 279.8 44.7213C279.824 44.7334 279.842 44.7273 279.854 44.7032C280.385 43.9558 281.198 43.5821 282.295 43.5821Z" fill="white"/>
<path d="M293.888 43.8895C293.888 43.7689 293.948 43.7086 294.069 43.7086H294.991C295.111 43.7086 295.172 43.7689 295.172 43.8895V52.5514C295.172 53.9016 294.78 54.8901 293.996 55.517C293.225 56.1439 292.158 56.4574 290.796 56.4574C290.518 56.4574 290.307 56.4513 290.163 56.4393C290.042 56.4272 289.982 56.3609 289.982 56.2403L290.018 55.4085C290.018 55.3482 290.036 55.3 290.072 55.2639C290.108 55.2397 290.151 55.2337 290.199 55.2458L290.687 55.2639C291.808 55.2639 292.622 55.0408 293.128 54.5948C293.635 54.1608 293.888 53.4676 293.888 52.5152V51.8461C293.888 51.822 293.876 51.81 293.852 51.81C293.84 51.7979 293.822 51.8039 293.797 51.828C293.243 52.5514 292.453 52.913 291.429 52.913C290.645 52.913 289.946 52.7021 289.331 52.2801C288.728 51.8582 288.324 51.2614 288.119 50.4899C287.975 49.9956 287.902 49.2602 287.902 48.2837C287.902 47.7533 287.914 47.3072 287.938 46.9455C287.975 46.5839 288.041 46.2584 288.137 45.969C288.354 45.2457 288.746 44.6671 289.313 44.2331C289.879 43.787 290.561 43.564 291.356 43.564C292.429 43.564 293.243 43.9196 293.797 44.6309C293.822 44.655 293.84 44.661 293.852 44.649C293.876 44.6369 293.888 44.6188 293.888 44.5947V43.8895ZM293.797 50.092C293.834 49.9112 293.858 49.6882 293.87 49.423C293.882 49.1577 293.888 48.772 293.888 48.2656C293.888 47.6508 293.882 47.2409 293.87 47.036C293.858 46.819 293.828 46.62 293.779 46.4392C293.683 45.9329 293.442 45.517 293.056 45.1915C292.682 44.8539 292.206 44.6851 291.627 44.6851C291.061 44.6851 290.579 44.8479 290.181 45.1734C289.795 45.4989 289.524 45.9208 289.367 46.4392C289.246 46.825 289.186 47.4278 289.186 48.2475C289.186 49.1276 289.246 49.7364 289.367 50.074C289.488 50.5803 289.747 51.0022 290.145 51.3398C290.554 51.6653 291.049 51.828 291.627 51.828C292.218 51.828 292.7 51.6653 293.074 51.3398C293.46 51.0143 293.701 50.5984 293.797 50.092Z" fill="white"/>
<path d="M305.449 53.0034C304.087 53.0034 303.008 52.696 302.213 52.0812C301.429 51.4664 301.037 50.6466 301.037 49.6219V49.0613C301.037 48.9407 301.097 48.8805 301.218 48.8805H302.104C302.225 48.8805 302.285 48.9407 302.285 49.0613V49.5495C302.285 50.2488 302.574 50.8154 303.153 51.2494C303.732 51.6713 304.533 51.8823 305.558 51.8823C306.486 51.8823 307.191 51.6894 307.674 51.3036C308.156 50.9058 308.397 50.3814 308.397 49.7304C308.397 49.3084 308.282 48.9468 308.053 48.6454C307.836 48.344 307.493 48.0607 307.023 47.7955C306.565 47.5302 305.914 47.2228 305.07 46.8732C304.166 46.5115 303.46 46.1981 302.954 45.9329C302.46 45.6556 302.056 45.306 301.742 44.8841C301.441 44.4501 301.29 43.9076 301.29 43.2566C301.29 42.2439 301.64 41.4603 302.339 40.9057C303.05 40.3391 304.021 40.0558 305.251 40.0558C306.589 40.0558 307.644 40.3693 308.415 40.9961C309.187 41.623 309.572 42.4549 309.572 43.4916V43.8895C309.572 44.01 309.512 44.0703 309.392 44.0703H308.487C308.367 44.0703 308.307 44.01 308.307 43.8895V43.564C308.307 42.8648 308.029 42.2921 307.475 41.8461C306.932 41.4 306.173 41.177 305.196 41.177C304.34 41.177 303.683 41.3518 303.225 41.7014C302.767 42.051 302.538 42.5573 302.538 43.2204C302.538 43.6544 302.647 44.0161 302.864 44.3054C303.093 44.5827 303.412 44.8298 303.822 45.0468C304.244 45.2517 304.889 45.523 305.757 45.8605C306.637 46.2222 307.342 46.5598 307.873 46.8732C308.415 47.1867 308.849 47.5724 309.175 48.0305C309.512 48.4766 309.681 49.0251 309.681 49.6761C309.681 50.6888 309.307 51.4965 308.56 52.0993C307.812 52.7021 306.776 53.0034 305.449 53.0034Z" fill="white"/>
<path d="M312.972 42.045C312.682 42.045 312.441 41.9485 312.248 41.7556C312.056 41.5628 311.959 41.3216 311.959 41.0323C311.959 40.7309 312.056 40.4898 312.248 40.309C312.441 40.1161 312.682 40.0196 312.972 40.0196C313.261 40.0196 313.502 40.1161 313.695 40.309C313.888 40.4898 313.984 40.7309 313.984 41.0323C313.984 41.3216 313.888 41.5628 313.695 41.7556C313.502 41.9485 313.261 42.045 312.972 42.045ZM312.465 52.8407C312.345 52.8407 312.285 52.7804 312.285 52.6599V43.8714C312.285 43.7508 312.345 43.6906 312.465 43.6906H313.388C313.508 43.6906 313.569 43.7508 313.569 43.8714V52.6599C313.569 52.7804 313.508 52.8407 313.388 52.8407H312.465Z" fill="white"/>
<path d="M322.355 43.8895C322.355 43.7689 322.415 43.7086 322.536 43.7086H323.458C323.579 43.7086 323.639 43.7689 323.639 43.8895V52.5514C323.639 53.9016 323.247 54.8901 322.463 55.517C321.692 56.1439 320.625 56.4574 319.263 56.4574C318.985 56.4574 318.774 56.4513 318.63 56.4393C318.509 56.4272 318.449 56.3609 318.449 56.2403L318.485 55.4085C318.485 55.3482 318.503 55.3 318.539 55.2639C318.575 55.2397 318.618 55.2337 318.666 55.2458L319.154 55.2639C320.275 55.2639 321.089 55.0408 321.595 54.5948C322.102 54.1608 322.355 53.4676 322.355 52.5152V51.8461C322.355 51.822 322.343 51.81 322.319 51.81C322.307 51.7979 322.289 51.8039 322.264 51.828C321.71 52.5514 320.92 52.913 319.896 52.913C319.112 52.913 318.413 52.7021 317.798 52.2801C317.195 51.8582 316.791 51.2614 316.586 50.4899C316.442 49.9956 316.369 49.2602 316.369 48.2837C316.369 47.7533 316.381 47.3072 316.405 46.9455C316.442 46.5839 316.508 46.2584 316.604 45.969C316.821 45.2457 317.213 44.6671 317.78 44.2331C318.346 43.787 319.028 43.564 319.823 43.564C320.896 43.564 321.71 43.9196 322.264 44.6309C322.289 44.655 322.307 44.661 322.319 44.649C322.343 44.6369 322.355 44.6188 322.355 44.5947V43.8895ZM322.264 50.092C322.301 49.9112 322.325 49.6882 322.337 49.423C322.349 49.1577 322.355 48.772 322.355 48.2656C322.355 47.6508 322.349 47.2409 322.337 47.036C322.325 46.819 322.295 46.62 322.246 46.4392C322.15 45.9329 321.909 45.517 321.523 45.1915C321.149 44.8539 320.673 44.6851 320.094 44.6851C319.528 44.6851 319.046 44.8479 318.648 45.1734C318.262 45.4989 317.991 45.9208 317.834 46.4392C317.714 46.825 317.653 47.4278 317.653 48.2475C317.653 49.1276 317.714 49.7364 317.834 50.074C317.955 50.5803 318.214 51.0022 318.612 51.3398C319.022 51.6653 319.516 51.828 320.094 51.828C320.685 51.828 321.167 51.6653 321.541 51.3398C321.927 51.0143 322.168 50.5984 322.264 50.092Z" fill="white"/>
<path d="M330.188 43.5821C331.152 43.5821 331.918 43.8654 332.484 44.432C333.063 44.9986 333.352 45.7581 333.352 46.7105V52.6779C333.352 52.7985 333.292 52.8588 333.172 52.8588H332.249C332.129 52.8588 332.068 52.7985 332.068 52.6779V46.9636C332.068 46.3006 331.863 45.7581 331.454 45.3361C331.056 44.9142 330.537 44.7032 329.898 44.7032C329.235 44.7032 328.699 44.9082 328.289 45.3181C327.879 45.7279 327.674 46.2644 327.674 46.9275V52.6779C327.674 52.7985 327.614 52.8588 327.493 52.8588H326.571C326.451 52.8588 326.39 52.7985 326.39 52.6779V43.8895C326.39 43.7689 326.451 43.7086 326.571 43.7086H327.493C327.614 43.7086 327.674 43.7689 327.674 43.8895V44.6671C327.674 44.6912 327.68 44.7092 327.692 44.7213C327.716 44.7334 327.734 44.7273 327.747 44.7032C328.277 43.9558 329.091 43.5821 330.188 43.5821Z" fill="white"/>
<path d="M343.031 46.7466C343.079 47.0842 343.103 47.5061 343.103 48.0125V48.5911C343.103 48.7117 343.043 48.772 342.922 48.772H337.082C337.033 48.772 337.009 48.7961 337.009 48.8443C337.033 49.5073 337.07 49.9353 337.118 50.1282C337.25 50.6707 337.534 51.0987 337.968 51.4121C338.402 51.7256 338.956 51.8823 339.631 51.8823C340.138 51.8823 340.584 51.7678 340.969 51.5387C341.355 51.3096 341.657 50.9841 341.874 50.5622C341.946 50.4537 342.03 50.4296 342.127 50.4899L342.832 50.9058C342.929 50.9661 342.953 51.0504 342.904 51.1589C342.603 51.7376 342.151 52.1957 341.548 52.5333C340.945 52.8588 340.252 53.0215 339.469 53.0215C338.613 53.0095 337.895 52.8045 337.317 52.4067C336.738 52.0089 336.322 51.4543 336.069 50.743C335.852 50.1644 335.743 49.3325 335.743 48.2475C335.743 47.7412 335.749 47.3313 335.762 47.0179C335.786 46.6924 335.834 46.403 335.906 46.1499C336.111 45.3663 336.521 44.7394 337.136 44.2692C337.763 43.7991 338.516 43.564 339.396 43.564C340.493 43.564 341.337 43.8412 341.928 44.3958C342.519 44.9504 342.886 45.734 343.031 46.7466ZM339.396 44.6851C338.806 44.6851 338.311 44.8419 337.913 45.1553C337.528 45.4567 337.274 45.8666 337.154 46.385C337.082 46.6381 337.033 47.048 337.009 47.6146C337.009 47.6628 337.033 47.687 337.082 47.687H341.765C341.813 47.687 341.837 47.6628 341.837 47.6146C341.813 47.0721 341.777 46.6864 341.729 46.4573C341.596 45.9148 341.325 45.4868 340.915 45.1734C340.517 44.8479 340.011 44.6851 339.396 44.6851Z" fill="white"/>
<path d="M349.346 43.6182C349.744 43.6182 350.087 43.6966 350.376 43.8533C350.473 43.9015 350.509 43.9799 350.485 44.0884L350.286 44.9745C350.25 45.095 350.172 45.1312 350.051 45.083C349.846 44.9986 349.611 44.9564 349.346 44.9564L349.111 44.9745C348.484 44.9986 347.965 45.2337 347.555 45.6797C347.146 46.1137 346.941 46.6683 346.941 47.3434V52.6779C346.941 52.7985 346.88 52.8588 346.76 52.8588H345.838C345.717 52.8588 345.657 52.7985 345.657 52.6779V43.8895C345.657 43.7689 345.717 43.7086 345.838 43.7086H346.76C346.88 43.7086 346.941 43.7689 346.941 43.8895V44.9926C346.941 45.0287 346.947 45.0528 346.959 45.0649C346.983 45.0649 347.001 45.0528 347.013 45.0287C347.266 44.5827 347.586 44.2391 347.971 43.998C348.369 43.7448 348.827 43.6182 349.346 43.6182Z" fill="white"/>
<path d="M113.963 55.6408C113.74 55.6408 113.536 55.5852 113.351 55.4739C113.165 55.3255 113.054 55.14 113.017 54.9175L102.056 17.6381C102.019 17.5639 102 17.4712 102 17.3599C102 16.9148 102.26 16.6922 102.779 16.6922H112.294C112.776 16.6922 113.073 16.9333 113.184 17.4155L118.748 40.896C118.785 41.0443 118.841 41.1185 118.915 41.1185C118.989 41.1185 119.045 41.0443 119.082 40.896L124.479 17.4155C124.59 16.9333 124.887 16.6922 125.369 16.6922H134.661C134.958 16.6922 135.162 16.7849 135.273 16.9704C135.422 17.1188 135.459 17.3413 135.385 17.6381L124.312 54.9175C124.275 55.14 124.164 55.3255 123.978 55.4739C123.793 55.5852 123.589 55.6408 123.366 55.6408H113.963Z" fill="white"/>
<path d="M139.643 55.6408C139.383 55.6408 139.179 55.5666 139.031 55.4182C138.882 55.2699 138.808 55.0658 138.808 54.8062V17.5268C138.808 17.2672 138.882 17.0631 139.031 16.9148C139.179 16.7664 139.383 16.6922 139.643 16.6922H148.434C148.694 16.6922 148.898 16.7664 149.046 16.9148C149.194 17.0631 149.269 17.2672 149.269 17.5268V46.4044C149.269 46.5899 149.361 46.6826 149.547 46.6826H166.74C167 46.6826 167.204 46.7568 167.352 46.9052C167.5 47.0536 167.575 47.2576 167.575 47.5172V54.8062C167.575 55.0658 167.5 55.2699 167.352 55.4182C167.204 55.5666 167 55.6408 166.74 55.6408H139.643Z" fill="white"/>
<path d="M185.503 56.0859C182.387 56.0859 179.661 55.5852 177.324 54.5836C174.987 53.545 173.169 52.0798 171.871 50.188C170.61 48.2962 169.979 46.1077 169.979 43.6224V42.8434C169.979 42.5837 170.053 42.3797 170.202 42.2313C170.35 42.083 170.554 42.0088 170.814 42.0088H179.438C179.698 42.0088 179.902 42.083 180.05 42.2313C180.199 42.3797 180.273 42.5837 180.273 42.8434V43.1772C180.273 44.2159 180.811 45.1432 181.886 45.9593C182.999 46.7383 184.464 47.1277 186.282 47.1277C187.654 47.1277 188.637 46.8495 189.231 46.2931C189.824 45.6996 190.121 45.0505 190.121 44.3457C190.121 43.5296 189.75 42.9176 189.008 42.5096C188.267 42.1015 186.913 41.6008 184.947 41.0073L183.333 40.5621C179.661 39.4493 176.582 37.9655 174.097 36.1109C171.611 34.2562 170.369 31.5669 170.369 28.0429C170.369 25.706 170.999 23.6473 172.26 21.8668C173.522 20.0492 175.247 18.6582 177.435 17.6937C179.661 16.7293 182.146 16.2471 184.891 16.2471C187.784 16.2471 190.399 16.7849 192.736 17.8607C195.11 18.9364 196.965 20.4572 198.3 22.4232C199.673 24.3892 200.359 26.6334 200.359 29.1557V29.6565C200.359 29.9162 200.285 30.1202 200.137 30.2686C199.988 30.4169 199.784 30.4911 199.525 30.4911H190.9C190.641 30.4911 190.437 30.4169 190.288 30.2686C190.14 30.1202 190.066 29.9162 190.066 29.6565V29.6009C190.066 28.4881 189.565 27.4865 188.563 26.5963C187.562 25.6689 186.208 25.2052 184.501 25.2052C183.314 25.2052 182.369 25.4464 181.664 25.9286C180.996 26.4108 180.662 27.0785 180.662 27.9316C180.662 28.5993 180.903 29.1743 181.386 29.6565C181.905 30.1016 182.684 30.5468 183.723 30.9919C184.761 31.3999 186.356 31.9378 188.508 32.6055C188.804 32.7168 190.103 33.1248 192.403 33.8296C194.739 34.4973 196.687 35.7399 198.245 37.5575C199.803 39.338 200.582 41.508 200.582 44.0675C200.582 46.5528 199.951 48.7042 198.69 50.5218C197.429 52.3023 195.667 53.6748 193.404 54.6393C191.141 55.6037 188.508 56.0859 185.503 56.0859Z" fill="white"/>
<path d="M46.0814 75.0955C41.8638 78.1785 36.1361 78.1785 31.9185 75.0955L4.9185 55.3594C1.82727 53.0998 -3.57073e-05 49.5006 -3.53725e-05 45.6716L-3.97086e-05 7.99999C-3.93223e-05 3.58171 3.58168 -2.17646e-05 7.99996 -2.13784e-05L69.9999 -1.59582e-05C74.4182 -1.55719e-05 77.9999 3.58171 77.9999 7.99998L77.9999 45.6716C77.9999 49.5006 76.1726 53.0998 73.0814 55.3594L46.0814 75.0955Z" fill="url(#paint0_linear_2_260)"/>
<mask id="mask0_2_260" style="mask-type:alpha" maskUnits="userSpaceOnUse" x="0" y="0" width="78" height="78">
<path d="M46.0814 75.0955C41.8638 78.1785 36.1361 78.1785 31.9185 75.0955L4.9185 55.3594C1.82727 53.0998 -3.54569e-05 49.5007 -3.51221e-05 45.6716L-3.94582e-05 8.00002C-3.90719e-05 3.58175 3.58168 1.63823e-05 7.99996 1.67686e-05L69.9999 2.21888e-05C74.4182 2.25751e-05 77.9999 3.58175 77.9999 8.00002L77.9999 45.6716C77.9999 49.5007 76.1726 53.0998 73.0814 55.3594L46.0814 75.0955Z" fill="url(#paint1_linear_2_260)"/>
</mask>
<g mask="url(#mask0_2_260)">
<path d="M-8.33026 57.932L21.2037 18.932C27.6406 20.8252 26.126 20.598 26.126 22.7184C26.126 24.8388 22.8445 30.2912 24.9901 27.2621L31.8057 44.6796L46.9513 18.932L58.3105 40.8932L31.8057 79.8932L-8.33026 57.932Z" fill="url(#paint2_linear_2_260)" fill-opacity="0.3"/>
</g>
<path fill-rule="evenodd" clip-rule="evenodd" d="M22.4468 18.9321C21.3422 18.9321 20.4468 19.8276 20.4468 20.9321L20.4468 39.74C20.4468 40.3744 20.7477 40.9711 21.2577 41.3482L38.5113 54.1051C39.218 54.6276 40.1828 54.6276 40.8894 54.1051L58.143 41.3482C58.6531 40.9711 58.954 40.3744 58.954 39.74V20.9321C58.954 19.8276 58.0586 18.9321 56.954 18.9321H48.2424C47.1379 18.9321 46.2424 19.8276 46.2424 20.9321V33.6649C46.2424 34.2724 45.9664 34.8469 45.4921 35.2264L40.9496 38.8618C40.2191 39.4465 39.1808 39.4465 38.4503 38.8618L33.9078 35.2264C33.4335 34.8469 33.1575 34.2724 33.1575 33.6649V20.9321C33.1575 19.8276 32.262 18.9321 31.1575 18.9321H22.4468Z" fill="white"/>
<defs>
<linearGradient id="paint0_linear_2_260" x1="9.32863" y1="75.0985" x2="69.1395" y2="-3.5852" gradientUnits="userSpaceOnUse">
<stop stop-color="#618AFF"/>
<stop offset="1" stop-color="#9389FE"/>
</linearGradient>
<linearGradient id="paint1_linear_2_260" x1="9.32863" y1="77.8772" x2="71.9198" y2="-1.52618" gradientUnits="userSpaceOnUse">
<stop stop-color="#618AFF"/>
<stop offset="1" stop-color="#9389FE"/>
</linearGradient>
<linearGradient id="paint2_linear_2_260" x1="40.5001" y1="19" x2="37.5001" y2="88.5" gradientUnits="userSpaceOnUse">
<stop stop-color="#151E27"/>
<stop offset="1" stop-color="#9389FE" stop-opacity="0"/>
</linearGradient>
</defs>
</svg>
