<svg width="24" height="24" viewBox="0 0 24 24" fill="none" xmlns="http://www.w3.org/2000/svg">
<mask id="mask0_1641_2546" style="mask-type:alpha" maskUnits="userSpaceOnUse" x="0" y="0" width="24" height="24">
<rect width="24" height="24" fill="#D9D9D9"/>
</mask>
<g mask="url(#mask0_1641_2546)">
<path d="M15.4464 12.6461L14.6502 11.85C14.8002 10.9769 14.5528 10.2211 13.9079 9.58269C13.263 8.94422 12.5105 8.69999 11.6502 8.84999L10.8541 8.05384C11.022 7.98461 11.1973 7.93268 11.38 7.89806C11.5627 7.86345 11.7695 7.84614 12.0002 7.84614C13.0195 7.84614 13.8832 8.20031 14.5916 8.90864C15.2999 9.61697 15.6541 10.4808 15.6541 11.5C15.6541 11.7308 15.6368 11.9439 15.6021 12.1394C15.5675 12.3349 15.5156 12.5038 15.4464 12.6461ZM18.6079 15.7192L17.8502 15.05C18.4836 14.5667 19.0461 14.0375 19.5377 13.4625C20.0294 12.8875 20.4502 12.2333 20.8002 11.5C19.9669 9.81666 18.7711 8.47916 17.2127 7.48749C15.6544 6.49582 13.9169 5.99999 12.0002 5.99999C11.5169 5.99999 11.0419 6.03332 10.5752 6.09999C10.1086 6.16666 9.65022 6.26666 9.20022 6.39999L8.41945 5.61921C9.00022 5.39998 9.59124 5.24196 10.1925 5.14516C10.7938 5.04838 11.3964 4.99999 12.0002 4.99999C14.1707 4.99999 16.156 5.59647 17.956 6.78942C19.756 7.98237 21.0784 9.55256 21.9233 11.5C21.5656 12.3038 21.1127 13.0593 20.5646 13.7663C20.0166 14.4734 19.3643 15.1243 18.6079 15.7192ZM19.7233 21.1385L15.831 17.2577C15.3887 17.4538 14.8396 17.6266 14.1839 17.776C13.5281 17.9253 12.8002 18 12.0002 18C9.81689 18 7.83163 17.4035 6.04445 16.2106C4.25726 15.0176 2.93483 13.4474 2.07715 11.5C2.4656 10.6167 2.97777 9.78941 3.61367 9.01826C4.24957 8.24711 4.92842 7.6 5.65022 7.07692L2.86175 4.27692L3.56945 3.56921L20.431 20.4308L19.7233 21.1385ZM6.3579 7.78461C5.78483 8.1923 5.19894 8.72819 4.60022 9.39229C4.00151 10.0564 3.53484 10.759 3.20022 11.5C4.03356 13.1833 5.22939 14.5208 6.78772 15.5125C8.34606 16.5042 10.0836 17 12.0002 17C12.5771 17 13.1585 16.9439 13.7444 16.8317C14.3303 16.7195 14.7707 16.6064 15.0656 16.4923L13.4348 14.85C13.2771 14.9385 13.0573 15.0112 12.7752 15.0683C12.4932 15.1253 12.2348 15.1538 12.0002 15.1538C10.981 15.1538 10.1172 14.7997 9.40887 14.0913C8.70054 13.383 8.34637 12.5192 8.34637 11.5C8.34637 11.2782 8.3749 11.0295 8.43195 10.7538C8.489 10.4782 8.56176 10.2487 8.65022 10.0654L6.3579 7.78461Z" fill="#556171"/>
</g>
</svg>
