<svg xmlns="http://www.w3.org/2000/svg" width="23" height="20" viewBox="0 0 23 20" fill="none">
  <path d="M5.47461 1.34387C5.47461 0.601673 6.08732 0 6.84313 0H9.09717C9.85299 0 10.4657 0.601673 10.4657 1.34387C10.4657 2.08607 9.85299 2.68775 9.09717 2.68775H6.84313C6.08732 2.68775 5.47461 2.08607 5.47461 1.34387Z" fill="white"/>
  <path d="M5.47461 18.6561C5.47461 19.3983 6.08732 20 6.84313 20H9.09717C9.85299 20 10.4657 19.3983 10.4657 18.6561C10.4657 17.9139 9.85299 17.3123 9.09717 17.3123H6.84313C6.08732 17.3123 5.47461 17.9139 5.47461 18.6561Z" fill="white"/>
  <path d="M2.09375 5.65173C2.09375 4.90953 2.70646 4.30786 3.46227 4.30786H9.09737C9.85319 4.30786 10.4659 4.90953 10.4659 5.65173C10.4659 6.39394 9.85319 6.99561 9.09737 6.99561H3.46227C2.70646 6.99561 2.09375 6.39394 2.09375 5.65173Z" fill="white"/>
  <path d="M2.09375 14.3477C2.09375 15.0899 2.70646 15.6915 3.46227 15.6915H9.09737C9.85319 15.6915 10.4659 15.0899 10.4659 14.3477C10.4659 13.6055 9.85319 13.0038 9.09737 13.0038H3.46227C2.70646 13.0038 2.09375 13.6055 2.09375 14.3477Z" fill="white"/>
  <path d="M0 10.0001C0 9.25792 0.612709 8.65625 1.36852 8.65625H9.09666C9.85247 8.65625 10.4652 9.25792 10.4652 10.0001C10.4652 10.7423 9.85247 11.344 9.09666 11.344H1.36852C0.612709 11.344 0 10.7423 0 10.0001Z" fill="white"/>
  <path d="M17.0254 18.6555C17.0254 19.3977 16.4127 19.9994 15.6569 19.9994H13.4028C12.647 19.9994 12.0343 19.3977 12.0343 18.6555C12.0343 17.9133 12.647 17.3116 13.4028 17.3116H15.6569C16.4127 17.3116 17.0254 17.9133 17.0254 18.6555Z" fill="white"/>
  <path d="M17.0254 1.34387C17.0254 0.601673 16.4127 0 15.6569 0H13.4028C12.647 0 12.0343 0.601673 12.0343 1.34387C12.0343 2.08607 12.647 2.68775 13.4028 2.68775H15.6569C16.4127 2.68775 17.0254 2.08607 17.0254 1.34387Z" fill="white"/>
  <path d="M20.4062 14.347C20.4062 15.0892 19.7935 15.6909 19.0377 15.6909H13.4026C12.6468 15.6909 12.0341 15.0892 12.0341 14.347C12.0341 13.6048 12.6468 13.0032 13.4026 13.0032H19.0377C19.7935 13.0032 20.4062 13.6048 20.4062 14.347Z" fill="white"/>
  <path d="M20.4062 5.65173C20.4062 4.90953 19.7935 4.30786 19.0377 4.30786H13.4026C12.6468 4.30786 12.0341 4.90953 12.0341 5.65173C12.0341 6.39394 12.6468 6.99561 13.4026 6.99561H19.0377C19.7935 6.99561 20.4062 6.39394 20.4062 5.65173Z" fill="white"/>
  <path d="M22.5 9.99964C22.5 9.25743 21.8873 8.65576 21.1315 8.65576H13.4033C12.6475 8.65576 12.0348 9.25743 12.0348 9.99964C12.0348 10.7418 12.6475 11.3435 13.4033 11.3435H21.1315C21.8873 11.3435 22.5 10.7418 22.5 9.99964Z" fill="white"/>
</svg>