<svg xmlns="http://www.w3.org/2000/svg" width="22" height="21" viewBox="0 0 22 21" fill="none">
  <path d="M18.119 2.87903C17.0719 1.93064 15.8655 1.19677 14.5453 0.688709C13.3616 0.237097 12.1324 0 11.0057 0H10.9943C9.86756 0 8.63839 0.237097 7.45473 0.688709C6.13451 1.19677 4.92809 1.93064 3.88101 2.87903C2.11692 4.48226 0 7.44032 0 12.4194C0 12.6677 0.136575 12.9048 0.352819 13.029C0.375582 13.0403 2.48112 14.271 2.89084 16.6871C3.16399 18.3468 4.30212 19.6113 6.15727 20.3677C7.48888 20.9097 8.74082 20.9887 8.78634 20.9887C8.97982 21 9.17331 20.9323 9.30988 20.7968C9.44646 20.6613 9.53751 20.4806 9.53751 20.2887V15.3097C9.99276 15.4452 10.4708 15.5129 10.9602 15.5129C11.4837 15.5129 11.9845 15.4452 12.4511 15.2984V20.3C12.4511 20.4919 12.5308 20.6839 12.6787 20.8081C12.8153 20.9323 12.986 21 13.1681 21C13.1795 21 13.2023 21 13.2137 21C13.2706 21 14.5111 20.921 15.8427 20.379C17.7093 19.6339 18.836 18.3581 19.1092 16.6984C19.2799 15.7048 19.7465 14.7903 20.5091 13.9887C21.1009 13.3677 21.6472 13.0403 21.6472 13.0403C21.8634 12.9161 22 12.679 22 12.4306C22 7.44032 19.8945 4.48226 18.119 2.87903ZM10.9943 1.41129C12.4397 1.41129 14.5453 1.93064 16.4232 3.31935L15.1826 5.67903H6.78324L5.56544 3.31935C7.45473 1.91935 9.56027 1.41129 10.9943 1.41129ZM4.27936 16.4613C3.88101 14.0452 2.17382 12.5887 1.41128 12.0468C1.50233 8.14032 3.0388 5.70161 4.46146 4.26774L5.63373 6.5371L5.64511 9.49516C5.64511 10.579 5.90688 11.6516 6.39627 12.5887C6.84014 13.4355 7.42059 14.1129 8.12623 14.6097V19.4758C6.91981 19.25 4.63218 18.55 4.27936 16.4613ZM7.6596 11.9452C7.27263 11.2113 7.06777 10.3645 7.06777 9.49516V7.07903H14.9095L14.8867 9.39355C14.8753 10.2855 14.6705 11.1548 14.2835 11.9226C13.7827 12.9161 12.8039 14.1016 10.9715 14.1016C9.07087 14.1016 8.0807 12.7581 7.6596 11.9452ZM17.7206 16.4613C17.5272 17.6129 16.7305 18.4935 15.342 19.0581C14.807 19.2726 14.2835 19.4081 13.8738 19.4871V14.5871C14.5453 14.0903 15.1143 13.4129 15.5354 12.5548C16.0135 11.5952 16.2752 10.5113 16.2866 9.40484L16.3094 6.54839L17.5272 4.26774C18.9612 5.70161 20.4977 8.14032 20.5887 12.0581C19.8262 12.5887 18.119 14.0452 17.7206 16.4613Z" fill="white"/>
</svg>